<svg xmlns="http://www.w3.org/2000/svg" width="1200" height="720" viewBox="0 0 1200 720"><defs><linearGradient id="bg" x2=".4" y2="1"><stop stop-color="#e9d4c0"/><stop offset="1" stop-color="#c39377"/></linearGradient><linearGradient id="wall" x2="1" y2=".2"><stop stop-color="#cda383"/><stop offset=".55" stop-color="#f0d8bc"/><stop offset="1" stop-color="#b8896b"/></linearGradient><linearGradient id="inside"><stop stop-color="#846650"/><stop offset="1" stop-color="#2c4947"/></linearGradient><linearGradient id="step" x2="0" y2="1"><stop stop-color="#eccbab"/><stop offset="1" stop-color="#ad7e62"/></linearGradient><filter id="shadow"><feGaussianBlur stdDeviation="16"/></filter></defs><path fill="url(#bg)" d="M0 0h1200v720H0z"/><circle cx="882" cy="145" r="80" fill="#f5e6cf" opacity=".7"/><path d="M0 553h1200v167H0z" fill="#b88e71"/><path d="M647 544 945 720H377L318 548Z" fill="#634e3d" opacity=".21" filter="url(#shadow)"/><path d="M385 552V247a207 207 0 0 1 414 0v305Z" fill="url(#wall)"/><path d="M449 552V256a143 143 0 0 1 286 0v296Z" fill="url(#inside)"/><path d="M478 552V268a114 114 0 0 1 228 0v284Z" fill="#dac2a5"/><path d="M512 552V280a80 80 0 0 1 160 0v272Z" fill="#426763"/><path d="M512 465 672 335v217H512Z" fill="#769184"/><path d="M430 552h321v24H430z" fill="url(#step)"/><path d="M399 576h383v25H399z" fill="url(#step)"/><path d="M368 601h445v26H368z" fill="url(#step)"/><path d="M337 627h507v26H337z" fill="url(#step)"/><path d="M288 654h605" stroke="#d4ad8f"/><path d="M65 553h242m561 0h275" stroke="#946e53" opacity=".45"/></svg>
