<svg xmlns="http://www.w3.org/2000/svg" width="1200" height="720" viewBox="0 0 1200 720"><defs><linearGradient id="bg" x2="1" y2="1"><stop stop-color="#202e3c"/><stop offset="1" stop-color="#0b141c"/></linearGradient><linearGradient id="slab" x2=".8" y2="1"><stop stop-color="#607584"/><stop offset=".48" stop-color="#354955"/><stop offset="1" stop-color="#1c303c"/></linearGradient><linearGradient id="glass" x2="1" y2="1"><stop stop-color="#b2c6c2" stop-opacity=".55"/><stop offset="1" stop-color="#294452" stop-opacity=".2"/></linearGradient><filter id="shadow"><feGaussianBlur stdDeviation="24"/></filter></defs><path fill="url(#bg)" d="M0 0h1200v720H0z"/><ellipse cx="638" cy="595" rx="280" ry="42" fill="#020a10" opacity=".55" filter="url(#shadow)"/><g transform="translate(120 -28) rotate(-12 500 350)"><rect x="275" y="232" width="550" height="330" rx="22" fill="#101f2a" stroke="#799296" stroke-opacity=".3"/><rect x="249" y="200" width="550" height="330" rx="22" fill="url(#slab)" stroke="#9db9b8" stroke-opacity=".45"/><rect x="219" y="160" width="550" height="330" rx="22" fill="url(#glass)" stroke="#b1c9c2" stroke-opacity=".6"/><path d="M220 212h548" stroke="#afc4bd" opacity=".25"/><circle cx="248" cy="188" r="5" fill="#b6c9bd"/><circle cx="268" cy="188" r="5" fill="#8ca5a2"/><circle cx="288" cy="188" r="5" fill="#698a8c"/><g fill="none" stroke="#d9eac2" stroke-width="10" stroke-linecap="round" stroke-linejoin="round"><path d="m335 296-43 33 43 33m326-66 43 33-43 33m-151-62-32 124"/></g><path d="M280 435h130m18 0h60" stroke="#a5b9b3" opacity=".6" stroke-width="4" stroke-linecap="round"/></g><path d="M86 610h184m680-500h164" stroke="#758f94" opacity=".4"/><circle cx="955" cy="550" r="6" fill="#d9eac2"/></svg>
